<svg width="123" height="60" viewBox="0 0 123 60" fill="none" xmlns="http://www.w3.org/2000/svg">
<path d="M78.536 43.2748H71.7555V34.4175C71.7555 33.1924 71.5411 32.2491 71.1124 31.5875C70.6836 30.9261 70.071 30.5953 69.2747 30.5953C68.4539 30.5953 67.8169 30.9322 67.3637 31.6059C66.9226 32.2675 66.7021 33.2046 66.7021 34.4175V43.2748H59.9213V34.4175C59.9213 33.1924 59.7069 32.2491 59.2782 31.5875C58.8494 30.9261 58.2368 30.5953 57.4405 30.5953C56.6197 30.5953 55.9827 30.9322 55.5294 31.6059C55.0883 32.2675 54.8679 33.2046 54.8679 34.4175V43.2748H48.0871V24.8987H53.4529L53.6734 27.7653C54.2982 26.7117 55.1129 25.9093 56.1174 25.3581C57.1342 24.8068 58.3103 24.5311 59.6457 24.5311C60.9932 24.5311 62.1693 24.8007 63.1738 25.3397C64.1784 25.8787 64.9747 26.6566 65.5627 27.6735C66.1998 26.6444 67.0145 25.8664 68.0068 25.3397C68.9991 24.8007 70.1568 24.5311 71.4799 24.5311C73.6972 24.5311 75.4246 25.2417 76.662 26.6628C77.9114 28.0716 78.536 30.0379 78.536 32.5615V43.2748Z" fill="url(#paint0_linear_115_480)"/>
<path d="M44.3935 43.2748H39.0277L38.8072 40.353C38.1701 41.4311 37.3248 42.2519 36.2713 42.8154C35.2177 43.3666 33.9865 43.6423 32.5777 43.6423C30.2991 43.6423 28.5165 42.9317 27.2302 41.5107C25.9439 40.0896 25.3008 38.1233 25.3008 35.6119V24.8987H32.0815V33.756C32.0815 34.9811 32.3143 35.9243 32.7798 36.5859C33.2576 37.2474 33.9314 37.5782 34.8012 37.5782C35.6955 37.5782 36.3877 37.2474 36.8777 36.5859C37.3677 35.9121 37.6128 34.9688 37.6128 33.756V24.8987H44.3935V43.2748Z" fill="url(#paint1_linear_115_480)"/>
<path d="M1.37499 40.1141L4.79301 34.5645C5.68729 35.2628 6.52034 35.8325 7.29214 36.2735C8.0762 36.7145 8.83576 37.0392 9.57082 37.2474C10.318 37.4435 11.0776 37.5414 11.8494 37.5414C12.609 37.5414 13.2583 37.4557 13.7973 37.2841C14.3363 37.1004 14.7467 36.8431 15.0285 36.5123C15.3225 36.1694 15.4695 35.7651 15.4695 35.2995C15.4695 34.7115 15.2613 34.2093 14.8448 33.7927C14.4281 33.3762 13.8708 33.0026 13.1725 32.6718C12.4865 32.341 11.733 32.0102 10.9122 31.6795C10.0302 31.3242 9.12971 30.9322 8.21093 30.5034C7.29214 30.0624 6.44685 29.5294 5.67504 28.9047C4.90324 28.2799 4.2785 27.5203 3.80064 26.626C3.32288 25.7195 3.08405 24.6169 3.08405 23.3183C3.08405 21.6032 3.51282 20.1392 4.37036 18.9264C5.24015 17.7013 6.42235 16.7703 7.91688 16.1332C9.42375 15.484 11.1266 15.1593 13.0255 15.1593C14.4098 15.1593 15.8738 15.3431 17.4174 15.7106C18.961 16.0781 20.5229 16.654 22.1033 17.4379L19.2733 23.2816C18.3913 22.7426 17.4235 22.3137 16.3699 21.9953C15.3287 21.6645 14.373 21.499 13.5032 21.499C12.903 21.499 12.3762 21.5787 11.9229 21.738C11.4819 21.8972 11.1388 22.13 10.8939 22.4363C10.6488 22.7302 10.5263 23.0794 10.5263 23.4837C10.5263 24.0228 10.7346 24.5005 11.1511 24.9171C11.5676 25.3213 12.1189 25.695 12.805 26.038C13.491 26.381 14.2383 26.7301 15.0469 27.0854C15.9289 27.4652 16.8293 27.8878 17.7482 28.3533C18.6792 28.8189 19.5306 29.3702 20.3024 30.0072C21.0865 30.6443 21.7174 31.4099 22.1952 32.3042C22.673 33.1863 22.9118 34.246 22.9118 35.4833C22.9118 37.1372 22.4585 38.595 21.552 39.8569C20.6577 41.1064 19.402 42.0803 17.7849 42.7786C16.1801 43.477 14.3118 43.826 12.1802 43.826C10.1956 43.826 8.28441 43.5076 6.44685 42.8705C4.60919 42.2335 2.91861 41.3146 1.37499 40.1141Z" fill="url(#paint2_linear_115_480)"/>
<mask id="mask0_115_480" style="mask-type:luminance" maskUnits="userSpaceOnUse" x="69" y="1" width="50" height="56">
<path d="M118.922 1.625H69.1847V56.6189H118.922V1.625Z" fill="white"/>
</mask>
<g mask="url(#mask0_115_480)">
<path d="M118.922 56.6189H109.39L95.5245 37.6524L100.186 30.9911L118.922 56.6189ZM98.9171 29.258L78.7185 1.625H69.1847L89.4608 29.3587L79.5975 43.4523H88.9907L98.9209 29.263L98.9171 29.258ZM95.3389 20.9592L100.137 27.5239L109.299 14.4328H99.9064L95.3389 20.9592Z" fill="url(#paint3_linear_115_480)"/>
</g>
<defs>
<linearGradient id="paint0_linear_115_480" x1="33.5444" y1="7.16719" x2="72.0676" y2="54.4439" gradientUnits="userSpaceOnUse">
<stop stop-color="#434343"/>
<stop offset="1" stop-color="#101010"/>
</linearGradient>
<linearGradient id="paint1_linear_115_480" x1="33.5445" y1="7.16719" x2="72.0677" y2="54.4439" gradientUnits="userSpaceOnUse">
<stop stop-color="#434343"/>
<stop offset="1" stop-color="#101010"/>
</linearGradient>
<linearGradient id="paint2_linear_115_480" x1="33.5444" y1="7.1672" x2="72.0676" y2="54.4439" gradientUnits="userSpaceOnUse">
<stop stop-color="#434343"/>
<stop offset="1" stop-color="#101010"/>
</linearGradient>
<linearGradient id="paint3_linear_115_480" x1="96.4421" y1="1.625" x2="96.4421" y2="56.6189" gradientUnits="userSpaceOnUse">
<stop stop-color="#08A5BF"/>
<stop offset="1" stop-color="#002660"/>
</linearGradient>
</defs>
</svg>
